Simulation
nRows=44
nColumns=15
endheader
time  TH_x TH_y TH_z SC_y  SC_z  SC_x  AC_y  AC_z  AC_x  GH_y  GH_z  GH_yy  EL_x  PS_y
0.0  0.000000  0.000000  0.000000  -29.35821998996566  -0.30770251624036093  -2.4958907397624683  50.47139496760025  7.720155333121251  -3.2528184199287535  40.008177103119074  9.398770201358902  -10.272785261261212  22.784092557586863  0.000000
0.031  0.000000  0.000000  0.000000  -29.324700141715983  -0.19234822781850636  -2.215926723843542  50.2340216024521  7.721480095107405  -3.4857180788763387  39.9159781126853  9.561793115718444  -10.309529714666404  22.77006213941246  0.000000
0.062  0.000000  0.000000  0.000000  -29.18158637423932  -0.1945647013003824  -2.012503743646914  50.10529746485193  7.636508818222988  -3.745992751015569  39.86947523295417  9.675580460276441  -10.295740628247046  22.73519203372235  0.000000
0.093  0.000000  0.000000  0.000000  -29.19635950610167  -0.24665534583792406  -1.8331300154086816  50.03672189078  7.48446031881809  -3.95542994304946  39.85382600054352  9.793905976166183  -10.274686425046264  22.708235526705668  0.000000
0.124  0.000000  0.000000  0.000000  -29.205356990409385  -0.32181531752077663  -1.7010887229760336  50.00211494857159  7.331299870080924  -4.128444882648775  39.83129198911516  9.936528969398681  -10.294477948390789  22.63405071642639  0.000000
0.155  0.000000  0.000000  0.000000  -29.25564447191007  -0.411372698421417  -1.5937688162907058  50.00931390348485  7.195177513285285  -4.2736497343267645  39.79501071552016  10.163101095663333  -10.350406457227608  22.512261572752923  0.000000
0.186  0.000000  0.000000  0.000000  -29.309540541345804  -0.49615289509902505  -1.5046596105192682  50.02127383888644  7.065148111596799  -4.388163226164012  39.70197620017213  10.491407657764483  -10.47393974290711  22.3628480427709  0.000000
0.217  0.000000  0.000000  0.000000  -29.384370773863566  -0.576449021630071  -1.4264480278776601  50.057222503081235  6.9444304801907  -4.484806048033699  39.54992016697021  10.94353790654174  -10.652189825167035  22.182627165046984  0.000000
0.248  0.000000  0.000000  0.000000  -29.47190370485631  -0.6474663481674937  -1.3531278303509728  50.0912540291638  6.826117818460739  -4.560402429365695  39.32053790592278  11.510249322382283  -10.890109426462553  21.986349703479565  0.000000
0.279  0.000000  0.000000  0.000000  -29.571537943552933  -0.7081093627290324  -1.281325530342628  50.136678496107564  6.716836081891702  -4.626837457375802  39.02019037702825  12.184352678893752  -11.165722274575161  21.777454413046012  0.000000
0.31  0.000000  0.000000  0.000000  -29.6736065908418  -0.7548818266074286  -1.2054598916696952  50.17484001604443  6.623738146040612  -4.683904200139604  38.64963167617769  12.939095289216944  -11.458984542978296  21.57777835025584  0.000000
0.34099999999999997  0.000000  0.000000  0.000000  -29.775311644178963  -0.7876498164340026  -1.1248818633696984  50.22212904898825  6.5515481596957414  -4.732219196043211  38.20606636374999  13.761999354111307  -11.751518207953474  21.392962559459484  0.000000
0.372  0.000000  0.000000  0.000000  -29.87974684737862  -0.811799035490336  -1.0361561862452122  50.286020080818226  6.502681756887493  -4.7635479232315  37.66797892361752  14.63853096138467  -12.034425269662119  21.242382147279557  0.000000
0.403  0.000000  0.000000  0.000000  -29.992181236281684  -0.8327474647711997  -0.9369914756267056  50.39005503134759  6.47484463761039  -4.7715697906430785  37.00285954092892  15.564399063275772  -12.303667289392367  21.1384054987625  0.000000
0.434  0.000000  0.000000  0.000000  -30.113782594535376  -0.8537184750235072  -0.8225357182626339  50.54001198519515  6.470679622522566  -4.756313713174413  36.18493315390323  16.53187596067835  -12.544271556864274  21.106038486146005  0.000000
0.46499999999999997  0.000000  0.000000  0.000000  -30.234481857240755  -0.8712781748944863  -0.6909509204779288  50.7295286421734  6.491682312071964  -4.722251039026716  35.21400643021319  17.53650724983493  -12.732974166390717  21.15094873186742  0.000000
0.496  0.000000  0.000000  0.000000  -30.341012577230003  -0.8800180127823924  -0.5433408139432001  50.94250443025104  6.5364981728592815  -4.677191205666574  34.12457901869561  18.582066138008024  -12.844809606433211  21.257997618960765  0.000000
0.527  0.000000  0.000000  0.000000  -30.41844638701291  -0.872185960241137  -0.3821926163259822  51.16080031151821  6.599004374549264  -4.624947934099903  32.97471187959893  19.676796130423547  -12.872217324440783  21.389089079241188  0.000000
0.558  0.000000  0.000000  0.000000  -30.462653879466785  -0.8405817431351851  -0.20742160995669723  51.37358937485166  6.671491644747079  -4.568380808333083  31.828793894520384  20.830655621617026  -12.831094752754  21.509071205110413  0.000000
0.589  0.000000  0.000000  0.000000  -30.480500857917093  -0.7800830377276092  -0.01513769129037954  51.573737634398675  6.750189318968291  -4.509123325288341  30.745151255341565  22.045216985127446  -12.756937131355096  21.59912490493046  0.000000
0.62  0.000000  0.000000  0.000000  -30.48730823314783  -0.6880763375361947  0.20016559275315132  51.762126934814546  6.8340672477657645  -4.448591763382384  29.76766650020445  23.316894124564374  -12.696404677825884  21.65467254273164  0.000000
0.651  0.000000  0.000000  0.000000  -30.497220894015953  -0.5646442935818734  0.44409449326739364  51.94136635926083  6.923347958659524  -4.386846601181148  28.920235399749203  24.639570825893568  -12.691560480044828  21.675129596253544  0.000000
0.6819999999999999  0.000000  0.000000  0.000000  -30.512455278248623  -0.4137188114643265  0.7206484943112829  52.115890432152725  7.017074731250648  -4.327084777618773  28.19844652275531  26.010464455178003  -12.763821410195634  21.661738961851025  0.000000
0.713  0.000000  0.000000  0.000000  -30.521742035331986  -0.24336324029676357  1.0330139984187103  52.28398381821462  7.113541643346924  -4.2780853842636395  27.572345756293366  27.42936449955306  -12.902860485615701  21.621757225786478  0.000000
0.744  0.000000  0.000000  0.000000  -30.50822839047682  -0.06289614869336983  1.383905033318579  52.443081299701895  7.209608603338347  -4.252019080851447  27.000020935933406  28.896993910141603  -13.077409525142427  21.566149599571382  0.000000
0.775  0.000000  0.000000  0.000000  -30.46265941776957  0.12031921951409656  1.7779212734874388  52.591806262410586  7.302155254667312  -4.258524270803419  26.449521192693204  30.408223869013366  -13.256018593269031  21.504203631147597  0.000000
0.806  0.000000  0.000000  0.000000  -30.3892269847253  0.3028734360495878  2.2222175543919875  52.737156948416654  7.3891661682877245  -4.300336514476692  25.912382183448855  31.947396858745098  -13.428550901564465  21.435754964900074  0.000000
0.837  0.000000  0.000000  0.000000  -30.302140938785186  0.4846719947465541  2.725885100806675  52.88892110712449  7.470903829307485  -4.374444281918265  25.402654676589897  33.488201643284604  -13.606123049281894  21.35384438711851  0.000000
0.868  0.000000  0.000000  0.000000  -30.215326984973256  0.6673681825010358  3.295839223764515  53.056424852187256  7.548389445251445  -4.476353198689515  24.941891511941513  35.001721972342075  -13.80880000270166  21.24977967112899  0.000000
0.899  0.000000  0.000000  0.000000  -30.13543102514863  0.8512359290451703  3.9351769133230996  53.24090656585142  7.620848228667449  -4.604223646899408  24.544577695646833  36.46486051894112  -14.05014320267712  21.118810616285604  0.000000
0.9299999999999999  0.000000  0.000000  0.000000  -30.06158264138412  1.0349971229205666  4.642019996123361  53.43777403510715  7.684571182498213  -4.759811528924936  24.212721972232806  37.865674421028785  -14.334228585124643  20.959686776461904  0.000000
0.961  0.000000  0.000000  0.000000  -29.991306960949224  1.217991197097211  5.412407758026122  53.63684230301272  7.734808816309685  -4.946576457186432  23.942767081691315  39.19970386619809  -14.661142097812895  20.77358720582036  0.000000
0.992  0.000000  0.000000  0.000000  -29.924719011495547  1.400988229235225  6.242015216469092  53.82579667461253  7.769820276078251  -5.169167925717863  23.7367755814755  40.465680484548834  -15.038552122314758  20.561058653005386  0.000000
1.023  0.000000  0.000000  0.000000  -29.866477723771897  1.5877267697696442  7.129641528205007  53.98901398640296  7.790281897191152  -5.432040940609528  23.607762989703442  41.66242608144742  -15.485133014320983  20.32298954667601  0.000000
1.054  0.000000  0.000000  0.000000  -29.824440104465218  1.7851468179520447  8.077016070613656  54.114431439650396  7.797421181588388  -5.737214999484714  23.571238777528258  42.790377877980724  -16.023253671719193  20.060972939261507  0.000000
1.085  0.000000  0.000000  0.000000  -29.805415927184804  2.0005997891177256  9.08817141084479  54.1976982529559  7.790863192651492  -6.080127480698023  23.62672971349331  43.85337722801742  -16.656043786280026  19.779853544005643  0.000000
1.116  0.000000  0.000000  0.000000  -29.811874519092232  2.238430036756278  10.166568937625147  54.248922310321205  7.769415257536077  -6.44917485405026  23.742921411717887  44.859572922994566  -17.34995545836586  19.48985059713779  0.000000
1.147  0.000000  0.000000  0.000000  -29.843158657399577  2.4974312239575918  11.315525448520894  54.28872593863909  7.730464735535354  -6.828272391408163  23.862785334119263  45.81938160921335  -18.037068377699924  19.207316345866765  0.000000
1.178  0.000000  0.000000  0.000000  -29.899025665166576  2.7732085092030094  12.534694401627853  54.33973289989303  7.671713714861247  -7.201493857646902  23.929712703811557  46.74240179280376  -18.646065541218363  18.949788711339025  0.000000
1.209  0.000000  0.000000  0.000000  -29.982927090567657  3.0619011142634878  13.816835632995334  54.41182599134662  7.593308664620879  -7.556702274756151  23.91539792319476  47.63506094674193  -19.133516829375683  18.73054143876751  0.000000
1.24  0.000000  0.000000  0.000000  -30.102916460460886  3.362149165088021  15.148732441668262  54.49787722446562  7.497863974803326  -7.888281838293312  23.82933326281144  48.49954836427092  -19.499309103455335  18.554828832554993  0.000000
1.271  0.000000  0.000000  0.000000  -30.26952079083667  3.6752758281143394  16.514662538341987  54.580166027965205  7.389490178484251  -8.195049609009354  23.70583143453059  49.333733819503614  -19.77027035312542  18.4195483354062  0.000000
1.302  0.000000  0.000000  0.000000  -30.486676180570857  4.001530112389274  17.899270271134004  54.641550394592194  7.273902319445487  -8.478902453273355  23.57723696241178  50.13277988112133  -19.97774227693923  18.317232485569882  0.000000
1.333  0.000000  0.000000  0.000000  -30.745800214841505  4.337208519042993  19.290267108278375  54.67324528495797  7.155402640585214  -8.742966930601968  23.454198194130228  50.8926771487549  -20.140517890278726  18.23832434467468  0.000000
